<svg width="224" height="34" viewBox="0 0 224 34" fill="none" xmlns="http://www.w3.org/2000/svg">
<rect width="33.2726" height="33.2726" rx="4.53297" fill="white"/>
<rect x="38.1455" width="33.2726" height="33.2726" rx="4.53297" fill="white"/>
<path d="M55.9837 25.0828C54.7598 25.0828 53.619 24.8863 52.5613 24.4935C51.5187 24.0855 50.6121 23.5113 49.8415 22.771C49.0709 22.0306 48.4665 21.1618 48.0283 20.1645C47.6052 19.1672 47.3937 18.0718 47.3937 16.8781C47.3937 15.6844 47.6052 14.589 48.0283 13.5917C48.4665 12.5944 49.0709 11.7256 49.8415 10.9852C50.6272 10.2449 51.5414 9.67824 52.5839 9.28538C53.6265 8.87741 54.7673 8.67343 56.0063 8.67343C57.3813 8.67343 58.6203 8.91519 59.7234 9.3987C60.8415 9.86711 61.7783 10.5622 62.5338 11.4839L60.1767 13.6597C59.6327 13.0402 59.0283 12.5793 58.3635 12.2771C57.6986 11.9598 56.9734 11.8012 56.1876 11.8012C55.4473 11.8012 54.7673 11.9221 54.1478 12.1638C53.5283 12.4056 52.9919 12.7531 52.5386 13.2064C52.0853 13.6597 51.7302 14.1961 51.4734 14.8156C51.2316 15.4351 51.1107 16.1226 51.1107 16.8781C51.1107 17.6336 51.2316 18.3211 51.4734 18.9406C51.7302 19.5601 52.0853 20.0965 52.5386 20.5498C52.9919 21.0031 53.5283 21.3506 54.1478 21.5924C54.7673 21.8341 55.4473 21.955 56.1876 21.955C56.9734 21.955 57.6986 21.8039 58.3635 21.5017C59.0283 21.1844 59.6327 20.7085 60.1767 20.0738L62.5338 22.2497C61.7783 23.1714 60.8415 23.874 59.7234 24.3575C58.6203 24.841 57.3738 25.0828 55.9837 25.0828Z" fill="#152637"/>
<rect x="76.291" width="33.2726" height="33.2726" rx="4.53297" fill="white"/>
<path d="M92.8821 25.0828C91.628 25.0828 90.4646 24.8788 89.3918 24.4708C88.3341 24.0629 87.4124 23.4887 86.6267 22.7483C85.856 22.0079 85.2517 21.1391 84.8135 20.1418C84.3904 19.1446 84.1789 18.0567 84.1789 16.8781C84.1789 15.6995 84.3904 14.6116 84.8135 13.6144C85.2517 12.6171 85.8636 11.7483 86.6493 11.0079C87.435 10.2675 88.3567 9.69335 89.4144 9.28538C90.4721 8.87741 91.6205 8.67343 92.8595 8.67343C94.1136 8.67343 95.262 8.87741 96.3045 9.28538C97.3622 9.69335 98.2764 10.2675 99.047 11.0079C99.8327 11.7483 100.445 12.6171 100.883 13.6144C101.321 14.5965 101.54 15.6844 101.54 16.8781C101.54 18.0567 101.321 19.1521 100.883 20.1645C100.445 21.1618 99.8327 22.0306 99.047 22.771C98.2764 23.4962 97.3622 24.0629 96.3045 24.4708C95.262 24.8788 94.1212 25.0828 92.8821 25.0828ZM92.8595 21.955C93.5696 21.955 94.2194 21.8341 94.8087 21.5924C95.4131 21.3506 95.9419 21.0031 96.3952 20.5498C96.8485 20.0965 97.196 19.5601 97.4378 18.9406C97.6946 18.3211 97.8231 17.6336 97.8231 16.8781C97.8231 16.1226 97.6946 15.4351 97.4378 14.8156C97.196 14.1961 96.8485 13.6597 96.3952 13.2064C95.957 12.7531 95.4357 12.4056 94.8313 12.1638C94.2269 11.9221 93.5696 11.8012 92.8595 11.8012C92.1493 11.8012 91.492 11.9221 90.8876 12.1638C90.2984 12.4056 89.7771 12.7531 89.3238 13.2064C88.8705 13.6597 88.5154 14.1961 88.2585 14.8156C88.0168 15.4351 87.8959 16.1226 87.8959 16.8781C87.8959 17.6185 88.0168 18.306 88.2585 18.9406C88.5154 19.5601 88.8629 20.0965 89.3011 20.5498C89.7544 21.0031 90.2832 21.3506 90.8876 21.5924C91.492 21.8341 92.1493 21.955 92.8595 21.955Z" fill="#152637"/>
<rect x="114.437" y="0.000244141" width="33.2726" height="33.2726" rx="4.53297" fill="white"/>
<path d="M132.274 25.083C131.05 25.083 129.909 24.8866 128.851 24.4937C127.809 24.0858 126.902 23.5116 126.132 22.7712C125.361 22.0308 124.757 21.162 124.318 20.1647C123.895 19.1675 123.684 18.072 123.684 16.8783C123.684 15.6847 123.895 14.5892 124.318 13.5919C124.757 12.5947 125.361 11.7259 126.132 10.9855C126.917 10.2451 127.831 9.67848 128.874 9.28562C129.917 8.87766 131.057 8.67367 132.296 8.67367C133.671 8.67367 134.91 8.91543 136.013 9.39895C137.132 9.86735 138.068 10.5624 138.824 11.4841L136.467 13.6599C135.923 13.0404 135.318 12.5796 134.654 12.2774C133.989 11.9601 133.263 11.8014 132.478 11.8014C131.737 11.8014 131.057 11.9223 130.438 12.1641C129.818 12.4058 129.282 12.7533 128.829 13.2066C128.375 13.6599 128.02 14.1963 127.763 14.8158C127.522 15.4353 127.401 16.1228 127.401 16.8783C127.401 17.6338 127.522 18.3213 127.763 18.9408C128.02 19.5603 128.375 20.0967 128.829 20.55C129.282 21.0033 129.818 21.3509 130.438 21.5926C131.057 21.8344 131.737 21.9553 132.478 21.9553C133.263 21.9553 133.989 21.8042 134.654 21.502C135.318 21.1847 135.923 20.7087 136.467 20.0741L138.824 22.2499C138.068 23.1716 137.132 23.8742 136.013 24.3577C134.91 24.8413 133.664 25.083 132.274 25.083Z" fill="#152637"/>
<rect x="152.582" width="33.2726" height="33.2726" rx="4.53297" fill="white"/>
<path d="M169.173 25.0828C167.919 25.0828 166.756 24.8788 165.683 24.4708C164.625 24.0629 163.703 23.4887 162.918 22.7483C162.147 22.0079 161.543 21.1391 161.104 20.1418C160.681 19.1446 160.47 18.0567 160.47 16.8781C160.47 15.6995 160.681 14.6116 161.104 13.6144C161.543 12.6171 162.155 11.7483 162.94 11.0079C163.726 10.2675 164.648 9.69335 165.705 9.28538C166.763 8.87741 167.911 8.67343 169.15 8.67343C170.405 8.67343 171.553 8.87741 172.596 9.28538C173.653 9.69335 174.567 10.2675 175.338 11.0079C176.124 11.7483 176.736 12.6171 177.174 13.6144C177.612 14.5965 177.831 15.6844 177.831 16.8781C177.831 18.0567 177.612 19.1521 177.174 20.1645C176.736 21.1618 176.124 22.0306 175.338 22.771C174.567 23.4962 173.653 24.0629 172.596 24.4708C171.553 24.8788 170.412 25.0828 169.173 25.0828ZM169.15 21.955C169.861 21.955 170.51 21.8341 171.1 21.5924C171.704 21.3506 172.233 21.0031 172.686 20.5498C173.14 20.0965 173.487 19.5601 173.729 18.9406C173.986 18.3211 174.114 17.6336 174.114 16.8781C174.114 16.1226 173.986 15.4351 173.729 14.8156C173.487 14.1961 173.14 13.6597 172.686 13.2064C172.248 12.7531 171.727 12.4056 171.122 12.1638C170.518 11.9221 169.861 11.8012 169.15 11.8012C168.44 11.8012 167.783 11.9221 167.179 12.1638C166.589 12.4056 166.068 12.7531 165.615 13.2064C165.161 13.6597 164.806 14.1961 164.55 14.8156C164.308 15.4351 164.187 16.1226 164.187 16.8781C164.187 17.6185 164.308 18.306 164.55 18.9406C164.806 19.5601 165.154 20.0965 165.592 20.5498C166.045 21.0031 166.574 21.3506 167.179 21.5924C167.783 21.8341 168.44 21.955 169.15 21.955Z" fill="#152637"/>
<rect x="190.728" width="33.2726" height="33.2726" rx="4.53297" fill="#53CEB9"/>
<path d="M198.367 24.8108V8.94541H201.404L208.158 20.1418H206.549L213.189 8.94541H216.204L216.249 24.8108H212.804L212.781 14.2263H213.416L208.112 23.1336H206.458L201.041 14.2263H201.812V24.8108H198.367Z" fill="#152637"/>
</svg>
